<svg width="219" height="382" viewBox="0 0 219 382" fill="none" xmlns="http://www.w3.org/2000/svg">
<path d="M49.9842 52.138L108.516 114.769H88.3499L39.8189 62.4672L33.2607 69.1894V114.769H18.5046V0H33.2607V50.3345C35.3921 48.0391 37.8514 45.7437 40.1468 43.4483L82.2835 0H100.811L49.9842 52.138Z" fill="black" style="fill:black;fill-opacity:1;"/>
<path d="M110.014 248.29H93.4549L80.3384 214.187H28.8563L15.7398 248.29H0L45.9077 133.521H63.9428L110.014 248.29ZM51.3182 155.819L33.611 201.726H75.5837L57.8765 155.819C56.7288 152.867 55.745 149.916 54.5974 147.129C53.6136 149.916 52.4659 152.867 51.3182 155.819Z" fill="black" style="fill:black;fill-opacity:1;"/>
<path d="M150.231 185.659L208.763 248.29H188.596L140.066 195.988L133.507 202.71V248.29H118.751V133.521H133.507V183.855C135.639 181.56 138.098 179.264 140.393 176.969L182.53 133.521H201.057L150.231 185.659Z" fill="black" style="fill:black;fill-opacity:1;"/>
<path d="M218.764 381.81H202.205L189.088 347.707H137.606L124.49 381.81H108.75L154.658 267.041H172.693L218.764 381.81ZM160.068 289.339L142.361 335.247H184.334L166.626 289.339C165.479 286.388 164.495 283.437 163.347 280.649C162.364 283.437 161.216 286.388 160.068 289.339Z" fill="black" style="fill:black;fill-opacity:1;"/>
</svg>
